<svg xmlns="http://www.w3.org/2000/svg" xmlns:xlink="http://www.w3.org/1999/xlink" version="1.1" id="Layer_1" x="0px" y="0px" width="100px" height="100px" viewBox="0 0 100 100" enable-background="new 0 0 100 100" xml:space="preserve">
<path fill-rule="evenodd" clip-rule="evenodd" d="M59.847,58.938l-5.198,5.21V36.683c0-0.105-0.006-0.209-0.013-0.313v-0.516  l5.211,5.208c1.813,1.816,4.753,1.816,6.569,0c1.813-1.812,1.813-4.754,0-6.565L53.277,21.359c-1.801-1.812-4.751-1.812-6.556,0  L33.586,34.496c-1.816,1.812-1.816,4.753,0,6.565c1.814,1.816,4.755,1.816,6.57,0l5.197-5.208v27.462  c0,0.106,0.005,0.211,0.011,0.314v0.518l-5.208-5.21c-1.815-1.814-4.752-1.814-6.57,0c-1.816,1.812-1.816,4.753,0,6.568  L46.724,78.64c1.803,1.814,4.753,1.814,6.557,0l13.136-13.134c1.813-1.815,1.813-4.756,0-6.568  C64.602,57.123,61.66,57.123,59.847,58.938z"/>
</svg>